<?xml version="1.0" encoding="UTF-8" standalone="no"?><svg width="1634" height="1382" viewBox="0 0 1634 1382" xmlns="http://www.w3.org/2000/svg">
<defs>
<marker id="startarrow" markerWidth="10" markerHeight="7"
refX="0" refY="3.5" orient="auto">
<polygon points="10 0, 10 7, 0 3.5" />
</marker>
<marker id="endarrow" markerWidth="10" markerHeight="7"
refX="10" refY="3.5" orient="auto">
<polygon points="0 0, 10 3.5, 0 7" />
</marker>

</defs><style>
.a14 { font-size: 14px; font-family: Times, serif; }
</style>
<ellipse cx="791" cy="47" rx="164" ry="17" fill="#5e6df7ff" 
            stroke-width="1" stroke="#000000ff"/>
<text dominant-baseline="middle" text-anchor="middle" 
            x="791" y="33" class="a14"><tspan x = "791" dy="1.0em">Task: Offscreen render</tspan></text><ellipse cx="378" cy="307" rx="178" ry="17" fill="#5e6df7ff" 
            stroke-width="1" stroke="#000000ff"/>
<text dominant-baseline="middle" text-anchor="middle" 
            x="378" y="293" class="a14"><tspan x = "378" dy="1.0em">Task: Postprocess render</tspan></text><ellipse cx="1209.5" cy="567" rx="157" ry="17" fill="#5e6df7ff" 
            stroke-width="1" stroke="#000000ff"/>
<text dominant-baseline="middle" text-anchor="middle" 
            x="1209.5" y="553" class="a14"><tspan x = "1209.5" dy="1.0em">Task: Finalize output</tspan></text><rect x="37" y="158" width="682" height="38" fill="#f75e70ff" 
            stroke-width="1" stroke="#000000ff" rx="0"  />
<text dominant-baseline="middle" text-anchor="middle" 
            x="378" y="156" class="a14"><tspan x = "378" dy="1.0em">offscreen(COLOR_ATTACHMENT_WRITE =&gt; SHADER_READ)</tspan><tspan x = "378" dy="1.0em">(COLOR_ATTACHMENT_OUTPUT =&gt; FRAGMENT_SHADER)</tspan></text><rect x="779" y="158" width="850" height="38" fill="#f75e70ff" 
            stroke-width="1" stroke="#000000ff" rx="0"  />
<text dominant-baseline="middle" text-anchor="middle" 
            x="1204" y="156" class="a14"><tspan x = "1204" dy="1.0em">depth(COLOR_ATTACHMENT_WRITE =&gt; SHADER_READ)</tspan><tspan x = "1204" dy="1.0em">(COLOR_ATTACHMENT_OUTPUT =&gt; VERTEX_SHADER | FRAGMENT_SHADER)</tspan></text><rect x="30" y="418" width="696" height="38" fill="#f75e70ff" 
            stroke-width="1" stroke="#000000ff" rx="0"  />
<text dominant-baseline="middle" text-anchor="middle" 
            x="378" y="416" class="a14"><tspan x = "378" dy="1.0em">offscreen+(COLOR_ATTACHMENT_WRITE =&gt; SHADER_READ)</tspan><tspan x = "378" dy="1.0em">(COLOR_ATTACHMENT_OUTPUT =&gt; FRAGMENT_SHADER)</tspan></text><text dominant-baseline="middle" text-anchor="middle" 
            x="310" y="229" class="a14"><tspan x = "310" dy="1.0em">offscreen</tspan></text><text dominant-baseline="middle" text-anchor="middle" 
            x="1169.5" y="489" class="a14"><tspan x = "1169.5" dy="1.0em">depth</tspan></text><text dominant-baseline="middle" text-anchor="middle" 
            x="718.75" y="489" class="a14"><tspan x = "718.75" dy="1.0em">offscreen+</tspan></text><text dominant-baseline="middle" text-anchor="middle" 
            x="516.5" y="97" class="a14"><tspan x = "516.5" dy="1.0em">offscreen</tspan></text><text dominant-baseline="middle" text-anchor="middle" 
            x="957.5" y="97" class="a14"><tspan x = "957.5" dy="1.0em">depth</tspan></text><text dominant-baseline="middle" text-anchor="middle" 
            x="751" y="229" class="a14"><tspan x = "751" dy="1.0em">depth</tspan></text><text dominant-baseline="middle" text-anchor="middle" 
            x="303" y="357" class="a14"><tspan x = "303" dy="1.0em">offscreen+</tspan></text><path id="arrow0" d="M 378 196 C 378 226, 378 213, 378 243 S 378 260, 378 290 " stroke="#000000ff" stroke-width="1"   marker-end="url(#endarrow)" 
            fill="transparent" />
<text><textPath href="#arrow0" startOffset="50%" text-anchor="middle" class="a14"></textPath></text><path id="arrow1" d="M 1205.5833333333333 196 C 1208.0746977289455 225.8963727473464, 1209.5 213, 1209.5 243 S 1209.5 277, 1209.5 307 S 1209.5 341, 1209.5 371 S 1209.5 407, 1209.5 437 S 1209.5 473, 1209.5 503 S 1209.5 520, 1209.5 550 " stroke="#000000ff" stroke-width="1"   marker-end="url(#endarrow)" 
            fill="transparent" />
<text><textPath href="#arrow1" startOffset="50%" text-anchor="middle" class="a14"></textPath></text><path id="arrow2" d="M 621.594696969697 456 C 650.5355386379297 463.90111913176156, 764.5977002262887 496.09279610589516, 793.75 503 S 1089.5229947404764 548.5308999720758, 1119.1737333022475 553.095295084411 " stroke="#000000ff" stroke-width="1"   marker-end="url(#endarrow)" 
            fill="transparent" />
<text><textPath href="#arrow2" startOffset="50%" text-anchor="middle" class="a14"></textPath></text><path id="arrow3" d="M 738.9808596797791 63.12215486922102 C 710.3255512659152 72.0032189781183, 613.1213951465945 102.01119375086665, 584.5 111 S 466.0229058694283 148.86677100541274, 437.4469696969697 158 " stroke="#000000ff" stroke-width="1"   marker-end="url(#endarrow)" 
            fill="transparent" />
<text><textPath href="#arrow3" startOffset="50%" text-anchor="middle" class="a14"></textPath></text><path id="arrow4" d="M 843.0191403202209 63.12215486922102 C 871.6744487340848 72.0032189781183, 968.8786048534055 102.01119375086665, 997.5 111 S 1115.9770941305717 148.86677100541272, 1144.5530303030303 158 " stroke="#000000ff" stroke-width="1"   marker-end="url(#endarrow)" 
            fill="transparent" />
<text><textPath href="#arrow4" startOffset="50%" text-anchor="middle" class="a14"></textPath></text><path id="arrow5" d="M 1085.1060606060605 196 C 1055.4819469621107 200.73411985593387, 820.633284910991 238.32415329726226, 791 243 S 501.0371498873428 287.93371042908007, 471.3909957505958 292.5277875834428 " stroke="#000000ff" stroke-width="1"   marker-end="url(#endarrow)" 
            fill="transparent" />
<text><textPath href="#arrow5" startOffset="50%" text-anchor="middle" class="a14"></textPath></text><path id="arrow6" d="M 378 324 C 378 354, 378 341, 378 371 S 378 388, 378 418 " stroke="#000000ff" stroke-width="1"   marker-end="url(#endarrow)" 
            fill="transparent" />
<text><textPath href="#arrow6" startOffset="50%" text-anchor="middle" class="a14"></textPath></text></svg>