<?xml version="1.0" encoding="UTF-8" standalone="no"?><svg width="741" height="774" viewBox="0 0 741 774" xmlns="http://www.w3.org/2000/svg">
<defs>
<marker id="startarrow" markerWidth="10" markerHeight="7"
refX="0" refY="3.5" orient="auto">
<polygon points="10 0, 10 7, 0 3.5" />
</marker>
<marker id="endarrow" markerWidth="10" markerHeight="7"
refX="10" refY="3.5" orient="auto">
<polygon points="0 0, 10 3.5, 0 7" />
</marker>

</defs><style>
.a14 { font-size: 14px; font-family: Times, serif; }
</style>
<ellipse cx="315" cy="47" rx="164" ry="17" fill="#ffffffff" 
            stroke-width="1" stroke="#000000ff"/>
<text dominant-baseline="middle" text-anchor="middle" 
            x="315" y="33" class="a14"><tspan x = "315" dy="1.0em">Task: Offscreen render</tspan></text><ellipse cx="208" cy="303" rx="178" ry="17" fill="#ffffffff" 
            stroke-width="1" stroke="#000000ff"/>
<text dominant-baseline="middle" text-anchor="middle" 
            x="208" y="289" class="a14"><tspan x = "208" dy="1.0em">Task: Postprocess render</tspan></text><ellipse cx="422" cy="559" rx="157" ry="17" fill="#ffffffff" 
            stroke-width="1" stroke="#000000ff"/>
<text dominant-baseline="middle" text-anchor="middle" 
            x="422" y="545" class="a14"><tspan x = "422" dy="1.0em">Task: Finalize output</tspan></text><ellipse cx="208" cy="175" rx="59" ry="17" fill="#ffffffff" 
            stroke-width="1" stroke="#000000ff"/>
<text dominant-baseline="middle" text-anchor="middle" 
            x="208" y="161" class="a14"><tspan x = "208" dy="1.0em">Barrier</tspan></text><ellipse cx="422" cy="431" rx="59" ry="17" fill="#ffffffff" 
            stroke-width="1" stroke="#000000ff"/>
<text dominant-baseline="middle" text-anchor="middle" 
            x="422" y="417" class="a14"><tspan x = "422" dy="1.0em">Barrier</tspan></text><ellipse cx="208" cy="431" rx="59" ry="17" fill="#ffffffff" 
            stroke-width="1" stroke="#000000ff"/>
<text dominant-baseline="middle" text-anchor="middle" 
            x="208" y="417" class="a14"><tspan x = "208" dy="1.0em">Barrier</tspan></text><text dominant-baseline="middle" text-anchor="middle" 
            x="140" y="225" class="a14"><tspan x = "140" dy="1.0em">offscreen</tspan></text><text dominant-baseline="middle" text-anchor="middle" 
            x="382" y="481" class="a14"><tspan x = "382" dy="1.0em">depth</tspan></text><text dominant-baseline="middle" text-anchor="middle" 
            x="240" y="481" class="a14"><tspan x = "240" dy="1.0em">offscreen*</tspan></text><text dominant-baseline="middle" text-anchor="middle" 
            x="193.5" y="97" class="a14"><tspan x = "193.5" dy="1.0em">offscreen</tspan></text><text dominant-baseline="middle" text-anchor="middle" 
            x="382" y="353" class="a14"><tspan x = "382" dy="1.0em">depth</tspan></text><text dominant-baseline="middle" text-anchor="middle" 
            x="133" y="353" class="a14"><tspan x = "133" dy="1.0em">offscreen*</tspan></text><path id="arrow0" d="M 208 192 C 208 222, 208 209, 208 239 S 208 256, 208 286 " stroke="#000000ff" stroke-width="1"   marker-end="url(#endarrow)" 
            fill="transparent" />
<text><textPath href="#arrow0" startOffset="50%" text-anchor="middle" class="a14"></textPath></text><path id="arrow1" d="M 422 448 C 422 478, 422 465, 422 495 S 422 512, 422 542 " stroke="#000000ff" stroke-width="1"   marker-end="url(#endarrow)" 
            fill="transparent" />
<text><textPath href="#arrow1" startOffset="50%" text-anchor="middle" class="a14"></textPath></text><path id="arrow2" d="M 233.60570211536017 446.31556014376685 C 259.3516964419772 461.7150333858555, 289.254005673383 479.6005267579113, 315 495 S 368.28671174172945 526.8724257146793, 394.03270606834644 542.2718989567679 " stroke="#000000ff" stroke-width="1"   marker-end="url(#endarrow)" 
            fill="transparent" />
<text><textPath href="#arrow2" startOffset="50%" text-anchor="middle" class="a14"></textPath></text><path id="arrow3" d="M 300.8421158939957 63.93653425765003 C 281.60123183684203 86.953666587703, 280.74088405715366 87.98286766994703, 261.5 111 S 241.05670785366436 135.4555270535604, 221.8158237965107 158.47265938361338 " stroke="#000000ff" stroke-width="1"   marker-end="url(#endarrow)" 
            fill="transparent" />
<text><textPath href="#arrow3" startOffset="50%" text-anchor="middle" class="a14"></textPath></text><path id="arrow4" d="M 343.0044390689228 63.750318695430465 C 368.7504333955398 79.14979193751914, 422 81, 422 111 S 422 145, 422 175 S 422 209, 422 239 S 422 273, 422 303 S 422 337, 422 367 S 422 384, 422 414 " stroke="#000000ff" stroke-width="1"   marker-end="url(#endarrow)" 
            fill="transparent" />
<text><textPath href="#arrow4" startOffset="50%" text-anchor="middle" class="a14"></textPath></text><path id="arrow5" d="M 208 320 C 208 350, 208 337, 208 367 S 208 384, 208 414 " stroke="#000000ff" stroke-width="1"   marker-end="url(#endarrow)" 
            fill="transparent" />
<text><textPath href="#arrow5" startOffset="50%" text-anchor="middle" class="a14"></textPath></text></svg>