<?xml version="1.0" encoding="UTF-8" standalone="no"?><svg width="553.5" height="1327" viewBox="0 0 553.5 1327" xmlns="http://www.w3.org/2000/svg">
<defs>
<marker id="startarrow" markerWidth="10" markerHeight="7"
refX="0" refY="3.5" orient="auto">
<polygon points="10 0, 10 7, 0 3.5" />
</marker>
<marker id="endarrow" markerWidth="10" markerHeight="7"
refX="10" refY="3.5" orient="auto">
<polygon points="0 0, 10 3.5, 0 7" />
</marker>
</defs>
<ellipse cx="262.5" cy="75" rx="101" ry="45" fill="#ffffffff" 
            stroke-width="1" stroke="#000000ff"/>
<text dominant-baseline="middle" text-anchor="middle" 
            x="262.5" y="33" class="a14"><tspan x = "262.5" dy="1.0em">Task: Task 1.</tspan><tspan x = "262.5" dy="1.0em">in: []</tspan><tspan x = "262.5" dy="1.0em">out: [</tspan><tspan x = "262.5" dy="1.0em">    &quot;t1_out&quot;,</tspan><tspan x = "262.5" dy="1.0em">]</tspan></text><ellipse cx="173" cy="333" rx="101" ry="59" fill="#ffffffff" 
            stroke-width="1" stroke="#000000ff"/>
<text dominant-baseline="middle" text-anchor="middle" 
            x="173" y="277" class="a14"><tspan x = "173" dy="1.0em">Task: Task 2.</tspan><tspan x = "173" dy="1.0em">in: [</tspan><tspan x = "173" dy="1.0em">    &quot;t1_out&quot;,</tspan><tspan x = "173" dy="1.0em">]</tspan><tspan x = "173" dy="1.0em">out: [</tspan><tspan x = "173" dy="1.0em">    &quot;t2_out&quot;,</tspan><tspan x = "173" dy="1.0em">]</tspan></text><ellipse cx="173" cy="612" rx="101" ry="66" fill="#ffffffff" 
            stroke-width="1" stroke="#000000ff"/>
<text dominant-baseline="middle" text-anchor="middle" 
            x="173" y="549" class="a14"><tspan x = "173" dy="1.0em">Task: Task 3.</tspan><tspan x = "173" dy="1.0em">in: [</tspan><tspan x = "173" dy="1.0em">    &quot;t1_out&quot;,</tspan><tspan x = "173" dy="1.0em">    &quot;t2_out&quot;,</tspan><tspan x = "173" dy="1.0em">]</tspan><tspan x = "173" dy="1.0em">out: [</tspan><tspan x = "173" dy="1.0em">    &quot;final&quot;,</tspan><tspan x = "173" dy="1.0em">]</tspan></text><ellipse cx="262.5" cy="197" rx="143" ry="17" fill="#ffffffff" 
            stroke-width="1" stroke="#000000ff"/>
<text dominant-baseline="middle" text-anchor="middle" 
            x="262.5" y="183" class="a14"><tspan x = "262.5" dy="1.0em">Barrier on &quot;t1_out&quot;</tspan></text><ellipse cx="173" cy="469" rx="143" ry="17" fill="#ffffffff" 
            stroke-width="1" stroke="#000000ff"/>
<text dominant-baseline="middle" text-anchor="middle" 
            x="173" y="455" class="a14"><tspan x = "173" dy="1.0em">Barrier on &quot;t2_out&quot;</tspan></text><path id="arrow0" d="M 251.34658074172637 213.94821250419233 C 234.85470153715468 239.0084982228711, 225.73335875821707 252.86886266907797, 209.24147955364538 277.92914838775675 " stroke="#000000ff" stroke-width="1"   marker-end="url(#endarrow)" 
            fill="transparent" />
<text><textPath href="#arrow0" startOffset="50%" text-anchor="middle" class="a14"></textPath></text><path id="arrow1" d="M 273.65341925827363 213.94821250419233 C 290.14529846284535 239.0084982228711, 352 303, 352 333 S 352 439, 352 469 S 260.3861230744848 542.1887396667523, 236.947289286946 560.91361805568 " stroke="#000000ff" stroke-width="1"   marker-end="url(#endarrow)"
            fill="transparent" />
<text><textPath href="#arrow1" startOffset="50%" text-anchor="middle" class="a14"></textPath></text><path id="arrow2" d="M 173 486 C 173 516, 173 516, 173 546 " stroke="#000000ff" stroke-width="1"   marker-end="url(#endarrow)"
            fill="transparent" />
<text><textPath href="#arrow2" startOffset="50%" text-anchor="middle" class="a14"></textPath></text><path id="arrow3" d="M 262.5 120 C 262.5 150, 262.5 150, 262.5 180 " stroke="#000000ff" stroke-width="1"   marker-end="url(#endarrow)"
            fill="transparent" />
<text><textPath href="#arrow3" startOffset="50%" text-anchor="middle" class="a14"></textPath></text><path id="arrow4" d="M 173 392 C 173 422, 173 422, 173 452 " stroke="#000000ff" stroke-width="1"   marker-end="url(#endarrow)"
            fill="transparent" />
<text><textPath href="#arrow4" startOffset="50%" text-anchor="middle" class="a14"></textPath></text></svg>